<svg xmlns="http://www.w3.org/2000/svg" width="72" height="72" fill="none" viewBox="0 0 72 72">
  <g clip-path="url(#a)">
    <g clip-path="url(#b)">
      <path stroke="#67d55e" stroke-width="5.625"
            d="M49.023 69.188a9.24 9.24 0 0 0 9.242-9.243v-9.242h1.68a9.242 9.242 0 1 0 0-18.484h-1.68v-9.242a9.24 9.24 0 0 0-9.242-9.242H39.78v-1.68a9.242 9.242 0 0 0-18.484 0v1.68h-9.242a9.24 9.24 0 0 0-9.242 9.242v9.242h1.68a9.242 9.242 0 0 1 0 18.484h-1.68v18.484h18.484v-1.68a9.242 9.242 0 0 1 18.484 0v1.68z"/>
    </g>
  </g>
  <defs>
    <clipPath id="a">
      <path fill="#fff" d="M0 0h72v72H0z"/>
    </clipPath>
    <clipPath id="b">
      <path fill="#fff" d="M0 0h72v72H0z"/>
    </clipPath>
  </defs>
</svg>
